<svg id="svg" version="1.1" width="400" height="400" viewBox="0 0 400 400" xmlns="http://www.w3.org/2000/svg" xmlns:xlink="http://www.w3.org/1999/xlink" ><g id="svgg"><path id="path0" d="M120.770 15.642 C 120.666 19.040,120.886 39.420,121.030 39.563 C 121.126 39.660,124.399 39.875,128.303 40.041 C 134.828 40.320,142.345 41.102,146.800 41.967 C 151.911 42.959,153.768 43.368,157.800 44.394 C 162.531 45.597,172.051 48.686,174.871 49.933 C 175.822 50.354,178.040 51.301,179.800 52.038 C 186.246 54.736,195.985 60.066,202.597 64.514 C 206.842 67.369,206.475 67.315,209.105 65.467 C 210.253 64.660,211.283 64.000,211.395 64.000 C 211.507 64.000,212.454 63.388,213.499 62.641 C 214.545 61.893,216.120 60.889,217.000 60.409 C 217.880 59.929,219.680 58.910,221.000 58.143 C 222.320 57.376,225.560 55.708,228.200 54.435 C 241.666 47.945,252.234 44.571,268.400 41.601 C 272.320 40.880,281.312 40.001,284.800 39.997 C 286.670 39.995,289.145 39.880,290.300 39.741 L 292.400 39.489 292.400 27.144 L 292.400 14.800 288.368 14.800 C 286.151 14.800,282.686 14.974,280.668 15.186 C 278.651 15.399,275.110 15.767,272.800 16.005 C 264.781 16.829,251.898 19.269,246.784 20.933 C 245.803 21.252,243.920 21.824,242.600 22.205 C 239.445 23.115,234.407 24.746,233.400 25.183 C 232.960 25.374,231.160 26.099,229.400 26.794 C 227.640 27.488,225.660 28.295,225.000 28.586 C 224.340 28.878,222.810 29.536,221.600 30.049 C 220.390 30.561,218.140 31.633,216.600 32.431 C 215.060 33.228,212.810 34.390,211.600 35.012 C 210.390 35.634,208.897 36.488,208.283 36.910 C 207.114 37.714,205.713 37.631,204.728 36.699 C 203.938 35.952,188.550 28.400,187.818 28.400 C 187.693 28.400,186.828 28.064,185.896 27.654 C 179.015 24.625,168.372 21.194,160.400 19.435 C 158.750 19.070,156.680 18.599,155.800 18.387 C 154.920 18.175,153.030 17.812,151.600 17.580 C 150.170 17.348,148.010 16.987,146.800 16.778 C 142.990 16.119,132.832 15.186,126.700 14.930 L 120.800 14.684 120.770 15.642 M120.977 64.038 C 120.738 64.424,120.715 87.938,120.953 88.324 C 121.073 88.517,123.652 88.786,126.685 88.921 C 132.908 89.198,135.399 89.575,144.200 91.570 C 163.190 95.876,185.507 109.882,196.510 124.400 C 200.292 129.390,203.114 133.406,204.722 136.085 L 206.573 139.169 207.758 137.285 C 213.781 127.704,217.641 122.707,223.429 117.001 C 227.905 112.587,235.941 106.177,239.884 103.876 C 241.085 103.174,242.908 102.108,243.934 101.507 C 245.691 100.479,250.089 98.287,254.600 96.192 C 258.827 94.228,266.936 91.840,274.000 90.477 C 275.210 90.243,277.169 89.858,278.352 89.621 C 279.536 89.384,283.183 89.074,286.458 88.932 L 292.411 88.675 292.306 76.237 L 292.200 63.800 288.800 63.912 C 283.748 64.078,275.623 64.773,273.800 65.195 C 272.920 65.399,270.490 65.861,268.400 66.221 C 266.310 66.581,264.150 67.018,263.600 67.192 C 263.050 67.365,261.880 67.700,261.000 67.935 C 256.921 69.024,254.535 69.705,253.800 69.990 C 253.360 70.161,251.200 70.978,249.000 71.807 C 239.253 75.476,228.419 81.228,221.524 86.394 C 220.492 87.167,218.787 88.430,217.735 89.200 C 215.498 90.837,208.525 96.891,207.481 98.102 C 206.762 98.935,206.762 98.935,204.681 96.932 C 203.536 95.831,202.046 94.495,201.370 93.965 C 199.347 92.379,191.834 86.432,191.357 86.040 C 191.114 85.839,188.742 84.316,186.086 82.654 C 179.760 78.695,174.590 76.072,165.200 72.057 C 161.105 70.306,150.421 67.237,144.800 66.198 C 142.930 65.852,140.590 65.406,139.600 65.207 C 135.615 64.403,121.306 63.505,120.977 64.038 M120.747 122.100 C 120.718 127.215,120.676 132.750,120.653 134.400 L 120.611 137.400 123.605 137.699 C 127.234 138.060,131.441 138.742,132.800 139.189 C 133.350 139.370,134.880 139.833,136.200 140.217 C 150.748 144.456,164.032 158.518,167.925 173.800 C 168.149 174.680,168.566 176.120,168.851 177.000 C 169.258 178.258,169.422 189.207,169.614 228.200 C 169.784 262.612,169.995 278.290,170.303 279.400 C 170.547 280.280,170.943 281.776,171.181 282.725 C 172.368 287.442,177.119 295.148,181.250 299.056 C 184.464 302.097,193.479 307.588,194.152 306.914 C 194.729 306.338,194.396 180.749,193.807 176.600 C 190.032 150.029,172.661 127.912,147.661 117.846 C 140.945 115.143,129.535 112.798,123.100 112.799 L 120.800 112.800 120.747 122.100 M283.800 113.250 C 268.434 115.571,257.321 120.301,246.200 129.254 C 241.052 133.398,232.400 142.599,232.400 143.930 C 232.400 144.134,232.145 144.514,231.833 144.773 C 230.520 145.862,224.000 157.866,224.000 159.194 C 224.000 159.549,223.849 160.011,223.664 160.220 C 223.242 160.697,222.654 162.323,221.790 165.400 C 221.420 166.720,221.016 168.070,220.893 168.400 C 220.029 170.726,219.156 178.236,218.803 186.400 C 218.390 195.922,218.277 304.047,218.678 306.075 L 218.890 307.150 221.145 306.156 C 230.620 301.981,238.040 294.115,241.309 284.781 C 243.399 278.812,243.329 280.530,243.597 228.600 C 243.882 173.383,243.663 176.919,247.376 167.654 C 252.919 153.821,265.192 143.150,279.800 139.461 C 284.560 138.260,285.852 138.025,289.106 137.772 L 292.411 137.516 292.306 125.258 L 292.200 113.000 289.200 112.944 C 287.550 112.913,285.120 113.051,283.800 113.250 M288.800 162.070 C 278.239 164.344,272.102 169.756,268.469 180.000 C 267.903 181.596,267.804 187.391,267.590 231.200 C 267.320 286.679,267.410 285.246,263.597 294.200 C 263.409 294.640,262.758 296.170,262.149 297.600 C 255.364 313.530,240.082 326.371,222.000 331.336 C 215.150 333.217,201.234 333.802,195.800 332.437 C 194.920 332.216,192.940 331.746,191.400 331.393 C 177.598 328.229,160.876 316.123,155.077 305.096 C 154.815 304.597,154.223 303.651,153.762 302.994 C 151.979 300.454,148.841 292.944,147.748 288.600 C 145.752 280.670,145.888 284.285,145.607 231.800 C 145.429 198.425,145.204 182.085,144.909 181.000 C 144.126 178.118,143.718 177.021,142.875 175.526 C 138.295 167.411,131.853 162.921,123.700 162.160 L 120.800 161.890 120.800 220.675 C 120.800 285.753,120.693 282.694,123.353 293.400 C 124.760 299.065,124.844 299.339,126.188 302.600 C 126.460 303.260,127.106 304.880,127.624 306.200 C 128.141 307.520,129.248 309.809,130.082 311.288 C 130.917 312.766,131.600 314.099,131.600 314.250 C 131.600 314.626,136.609 322.144,138.496 324.600 C 140.767 327.555,148.319 335.603,150.462 337.351 C 151.486 338.187,152.656 339.172,153.062 339.540 C 158.556 344.527,171.287 351.195,181.800 354.591 C 195.305 358.953,217.063 359.171,229.604 355.068 C 230.592 354.745,232.895 354.007,234.721 353.428 C 236.548 352.848,239.943 351.480,242.266 350.387 C 244.589 349.294,246.563 348.400,246.652 348.400 C 246.741 348.400,248.746 347.198,251.107 345.728 C 264.733 337.247,274.756 326.651,282.443 312.600 C 286.249 305.643,289.456 296.586,290.940 288.600 C 292.437 280.547,292.452 279.811,292.325 220.200 C 292.183 153.872,292.630 161.245,288.800 162.070 " stroke="none" fill="#096d40" fill-rule="evenodd"></path><path id="path1" d="M0.000 200.000 L 0.000 400.000 200.000 400.000 L 400.000 400.000 400.000 200.000 L 400.000 0.000 200.000 0.000 L 0.000 0.000 0.000 200.000 M139.600 9.770 C 162.112 12.426,180.306 17.721,199.546 27.218 L 206.600 30.701 212.405 27.795 C 215.598 26.197,219.378 24.408,220.805 23.820 C 222.232 23.232,223.958 22.496,224.639 22.185 C 234.677 17.609,253.242 12.551,267.000 10.644 C 276.132 9.378,278.863 9.160,288.492 8.922 L 298.383 8.677 298.492 26.239 C 298.551 35.897,298.539 44.177,298.465 44.638 C 298.335 45.446,298.044 45.485,290.065 45.742 C 280.511 46.049,270.897 47.061,264.600 48.422 C 245.146 52.626,229.660 59.107,214.083 69.563 C 210.939 71.673,207.940 73.662,207.420 73.981 C 206.523 74.533,206.267 74.420,202.441 71.781 C 191.385 64.156,181.535 58.899,170.977 54.990 C 168.790 54.180,166.640 53.374,166.200 53.199 C 163.822 52.253,161.246 51.502,154.400 49.756 C 145.257 47.425,135.178 46.133,123.100 45.742 L 114.800 45.474 114.800 27.075 L 114.800 8.677 124.700 8.929 C 130.145 9.067,136.850 9.446,139.600 9.770 M133.000 58.419 C 159.640 61.103,183.253 71.000,203.626 88.022 C 206.128 90.112,206.596 90.360,207.194 89.914 C 207.572 89.631,209.844 87.816,212.241 85.880 C 234.295 68.070,261.428 58.391,290.600 57.929 L 298.200 57.809 298.304 76.304 L 298.408 94.800 292.569 94.800 C 257.136 94.800,227.746 113.005,209.766 146.091 C 208.245 148.891,206.820 151.183,206.600 151.186 C 206.380 151.188,204.850 148.733,203.200 145.730 C 185.102 112.788,156.049 94.855,120.700 94.808 L 114.800 94.800 114.800 76.467 C 114.800 66.383,114.875 58.058,114.966 57.967 C 115.286 57.645,128.645 57.980,133.000 58.419 M130.184 107.424 C 166.299 111.745,195.088 140.025,199.773 175.783 C 200.399 180.561,200.787 314.680,200.176 315.290 C 199.971 315.496,195.904 314.149,190.342 312.033 C 179.630 307.958,169.661 297.301,165.817 285.816 C 163.782 279.737,163.873 282.038,163.594 229.600 C 163.320 177.866,163.368 179.074,161.360 173.000 C 155.377 154.891,138.986 143.651,118.500 143.608 L 114.800 143.600 114.800 125.200 L 114.800 106.800 119.884 106.800 C 122.680 106.800,127.315 107.081,130.184 107.424 M298.445 125.200 L 298.467 143.400 293.134 143.656 C 271.513 144.691,255.469 157.001,250.977 176.000 C 250.638 177.430,250.244 178.960,250.100 179.400 C 249.956 179.840,249.730 202.340,249.597 229.400 L 249.356 278.600 248.321 282.423 C 243.888 298.811,229.646 312.330,213.900 315.097 L 212.800 315.291 212.807 247.545 C 212.815 176.090,212.799 176.790,214.595 168.912 C 222.879 132.577,255.598 106.552,292.511 106.938 L 298.422 107.000 298.445 125.200 M122.426 155.991 C 133.635 156.812,142.844 162.622,147.759 171.974 C 149.042 174.417,149.409 175.343,150.854 179.800 C 151.261 181.057,151.427 191.896,151.625 230.400 C 151.905 284.879,151.732 281.519,154.703 290.400 C 164.882 320.827,200.768 335.880,229.966 321.971 C 244.765 314.921,256.192 301.266,259.735 286.400 C 260.075 284.970,260.576 282.900,260.848 281.800 C 261.219 280.299,261.406 267.583,261.600 230.800 C 261.777 197.128,261.997 181.231,262.302 179.982 C 265.922 165.140,277.746 156.053,293.695 155.856 L 298.200 155.800 298.200 219.200 C 298.200 270.145,298.096 283.150,297.670 285.400 C 295.764 295.475,295.183 297.657,292.196 305.958 C 291.098 309.012,287.249 316.730,285.130 320.129 C 253.474 370.897,184.167 379.270,141.876 337.436 C 135.804 331.430,132.250 326.919,127.785 319.551 C 121.266 308.792,117.431 297.931,115.594 285.024 C 114.791 279.384,114.290 156.643,115.067 155.867 C 115.407 155.527,116.284 155.542,122.426 155.991 " stroke="none" fill="#fbfbfb" fill-rule="evenodd"></path><path id="path2" d="M115.200 27.283 L 115.200 45.200 121.344 45.200 C 132.690 45.200,145.095 46.854,157.400 50.006 C 160.626 50.833,170.824 54.168,172.600 54.977 C 173.260 55.278,174.970 56.011,176.400 56.606 C 179.228 57.784,187.233 61.707,189.800 63.173 C 194.581 65.904,199.177 68.887,204.545 72.743 C 205.869 73.693,206.650 74.021,206.991 73.770 C 231.557 55.651,258.908 46.175,289.068 45.333 C 296.767 45.119,297.954 45.001,298.068 44.443 C 298.141 44.089,298.151 36.021,298.092 26.513 L 297.983 9.226 289.492 9.414 C 284.821 9.517,279.200 9.783,277.000 10.004 C 267.248 10.984,258.850 12.213,255.200 13.194 C 254.430 13.401,252.540 13.850,251.000 14.192 C 243.615 15.833,230.161 20.174,225.425 22.445 C 224.559 22.860,223.696 23.200,223.508 23.200 C 223.320 23.200,221.959 23.761,220.483 24.446 C 219.007 25.132,216.450 26.320,214.800 27.088 C 213.150 27.855,210.755 29.094,209.479 29.841 C 206.804 31.407,206.314 31.472,204.862 30.459 C 203.875 29.771,195.580 25.662,192.400 24.287 C 185.247 21.194,174.810 17.462,168.600 15.776 C 160.168 13.487,147.636 11.029,142.200 10.598 C 140.660 10.475,138.050 10.201,136.400 9.988 C 134.750 9.776,129.305 9.548,124.300 9.483 L 115.200 9.365 115.200 27.283 M138.400 15.154 C 143.594 15.704,150.713 16.847,158.600 18.399 C 161.532 18.976,166.991 20.427,167.695 20.816 C 168.077 21.027,168.641 21.200,168.949 21.200 C 169.837 21.200,175.544 23.026,180.200 24.799 C 182.719 25.759,184.797 26.596,186.296 27.255 C 187.228 27.665,188.093 28.000,188.218 28.000 C 188.597 28.000,194.055 30.518,195.800 31.498 C 196.240 31.745,198.040 32.652,199.800 33.513 C 201.560 34.375,203.844 35.566,204.875 36.161 L 206.751 37.241 208.368 36.220 C 209.257 35.659,210.153 35.200,210.359 35.200 C 210.565 35.200,210.793 35.065,210.867 34.900 C 211.062 34.460,221.747 29.200,222.446 29.200 C 222.773 29.200,223.254 28.986,223.516 28.724 C 223.778 28.462,224.219 28.215,224.496 28.174 C 224.773 28.133,225.810 27.742,226.800 27.304 C 227.790 26.867,229.410 26.193,230.400 25.807 C 231.390 25.420,232.560 24.954,233.000 24.770 C 234.931 23.964,243.785 21.200,244.435 21.200 C 244.830 21.200,245.264 21.020,245.400 20.800 C 245.536 20.580,246.080 20.400,246.610 20.400 C 247.139 20.400,248.406 20.117,249.425 19.771 C 252.847 18.609,259.239 17.329,266.564 16.338 C 268.524 16.072,269.839 15.753,269.485 15.628 C 269.131 15.502,270.407 15.364,272.321 15.320 C 274.234 15.275,277.240 15.037,279.000 14.789 C 280.760 14.541,284.630 14.397,287.600 14.469 L 293.000 14.600 293.106 26.952 C 293.174 34.903,293.067 39.479,292.804 39.795 C 292.525 40.132,290.176 40.355,285.299 40.509 C 278.630 40.720,275.457 41.020,269.200 42.031 C 265.622 42.610,260.485 43.581,258.800 43.998 C 248.335 46.587,239.025 49.866,229.711 54.242 C 228.123 54.989,226.724 55.600,226.603 55.600 C 226.483 55.600,225.713 56.024,224.892 56.542 C 224.071 57.060,222.050 58.193,220.400 59.061 C 216.562 61.079,207.529 66.996,207.829 67.296 C 208.973 68.440,205.127 66.933,202.965 65.390 C 201.444 64.305,200.110 63.427,200.000 63.439 C 199.890 63.450,199.098 62.952,198.240 62.330 C 197.382 61.709,196.437 61.200,196.140 61.200 C 195.843 61.200,195.600 61.020,195.600 60.800 C 195.600 60.580,195.411 60.400,195.181 60.400 C 194.950 60.400,193.825 59.802,192.681 59.072 C 190.319 57.565,179.960 52.400,179.299 52.400 C 179.060 52.400,178.355 52.145,177.732 51.834 C 174.808 50.373,172.557 49.500,167.000 47.673 C 163.700 46.587,159.740 45.394,158.200 45.021 C 156.660 44.648,154.770 44.183,154.000 43.988 C 152.106 43.509,147.215 42.575,143.800 42.040 C 136.720 40.932,134.977 40.763,128.600 40.564 C 124.860 40.447,121.395 40.269,120.900 40.168 L 120.000 39.985 120.000 27.459 C 120.000 20.570,120.135 14.797,120.300 14.630 C 120.695 14.231,133.059 14.589,138.400 15.154 M115.200 76.145 C 115.200 90.156,115.308 94.002,115.700 94.011 C 127.935 94.284,135.847 95.132,143.000 96.939 C 148.363 98.294,150.566 99.008,154.114 100.545 C 154.946 100.905,155.813 101.200,156.039 101.200 C 156.266 101.200,158.745 102.352,161.548 103.759 C 180.034 113.040,193.403 126.333,203.765 145.733 C 206.640 151.115,206.697 151.140,208.389 147.717 C 211.390 141.643,215.936 134.548,221.149 127.800 C 228.395 118.421,242.879 107.515,255.600 101.859 C 261.450 99.258,272.263 96.000,275.046 96.000 C 275.703 96.000,276.411 95.837,276.620 95.637 C 277.066 95.211,278.951 95.014,288.400 94.408 C 292.250 94.161,295.972 94.064,296.672 94.192 C 298.317 94.494,298.223 95.748,298.091 75.265 L 297.983 58.330 289.691 58.511 C 281.602 58.687,275.441 59.183,271.400 59.982 C 265.171 61.213,262.876 61.697,261.800 62.004 C 261.140 62.192,259.880 62.527,259.000 62.749 C 249.022 65.263,236.410 70.556,227.259 76.069 C 225.862 76.911,224.665 77.600,224.599 77.600 C 224.534 77.600,223.428 78.324,222.140 79.209 C 220.853 80.094,218.900 81.436,217.800 82.192 C 216.700 82.947,213.751 85.203,211.246 87.205 C 208.741 89.206,206.491 90.758,206.246 90.652 C 206.001 90.546,204.270 89.173,202.400 87.600 C 199.367 85.049,193.780 80.849,192.045 79.816 C 191.690 79.605,190.500 78.853,189.400 78.146 C 186.780 76.460,180.280 72.802,178.000 71.731 C 177.010 71.266,174.850 70.243,173.200 69.459 C 170.627 68.236,165.485 66.276,159.400 64.198 C 158.520 63.897,155.910 63.181,153.600 62.606 C 151.290 62.031,148.684 61.370,147.809 61.137 C 142.938 59.840,133.269 58.777,124.100 58.530 L 115.200 58.290 115.200 76.145 M133.400 63.991 C 136.260 64.217,139.410 64.578,140.400 64.794 C 141.390 65.010,144.000 65.536,146.200 65.963 C 148.400 66.390,151.280 67.051,152.600 67.431 C 153.920 67.811,155.405 68.113,155.900 68.103 C 156.395 68.093,156.800 68.239,156.800 68.427 C 156.800 68.615,157.565 68.965,158.500 69.203 C 160.886 69.813,162.698 70.459,165.660 71.759 C 166.464 72.112,167.236 72.400,167.377 72.400 C 168.149 72.400,180.692 78.588,181.631 79.433 C 181.979 79.745,182.393 80.000,182.551 80.000 C 182.709 80.000,183.923 80.720,185.248 81.600 C 186.573 82.480,187.824 83.200,188.028 83.200 C 188.233 83.200,188.400 83.336,188.400 83.502 C 188.400 83.669,188.967 84.056,189.660 84.363 C 190.353 84.669,191.214 85.208,191.573 85.560 C 192.376 86.346,195.107 88.456,196.026 89.000 C 196.776 89.444,199.435 91.705,203.690 95.517 C 206.157 97.727,206.579 97.967,207.150 97.484 C 207.507 97.182,209.816 95.195,212.279 93.068 C 214.743 90.940,216.939 89.200,217.159 89.200 C 217.380 89.200,217.704 88.974,217.880 88.697 C 218.056 88.421,219.072 87.566,220.138 86.797 C 221.204 86.029,222.396 85.108,222.788 84.750 C 223.180 84.392,223.665 84.032,223.868 83.950 C 224.070 83.868,225.720 82.900,227.535 81.800 C 232.912 78.541,234.502 77.637,236.400 76.761 C 237.390 76.304,239.842 75.136,241.848 74.165 C 243.855 73.194,245.628 72.400,245.788 72.400 C 245.948 72.400,246.646 72.147,247.340 71.839 C 248.438 71.350,252.534 69.839,255.600 68.792 C 256.150 68.604,257.230 68.334,258.000 68.193 C 258.770 68.051,260.390 67.611,261.600 67.215 C 262.810 66.820,265.420 66.199,267.400 65.836 C 269.380 65.474,271.810 65.002,272.800 64.789 C 274.573 64.407,281.650 63.745,288.500 63.319 C 293.583 63.004,293.200 61.956,293.200 76.169 C 293.200 89.883,293.379 89.191,289.820 89.218 C 287.274 89.237,276.547 90.460,272.800 91.158 C 269.176 91.833,262.044 93.834,259.800 94.804 C 259.360 94.994,258.550 95.276,258.000 95.430 C 256.954 95.723,254.018 96.986,250.560 98.630 C 249.438 99.164,248.386 99.600,248.222 99.600 C 248.058 99.600,247.446 99.935,246.862 100.343 C 245.955 100.978,244.330 101.910,240.200 104.163 C 239.760 104.404,239.310 104.690,239.200 104.800 C 239.090 104.910,238.100 105.618,237.000 106.373 C 234.905 107.811,234.212 108.355,229.000 112.659 C 224.301 116.539,215.758 125.539,216.205 126.138 C 216.312 126.282,216.286 126.316,216.147 126.213 C 216.008 126.111,215.342 126.786,214.667 127.713 C 212.980 130.033,209.200 135.685,209.200 135.888 C 209.200 135.979,208.750 136.643,208.200 137.364 C 207.650 138.086,207.200 138.884,207.200 139.138 C 207.200 140.185,206.077 139.492,205.364 138.005 C 204.944 137.127,204.465 136.407,204.300 136.405 C 204.135 136.402,204.000 136.219,204.000 135.998 C 204.000 135.453,199.819 129.511,195.276 123.600 C 189.534 116.129,174.879 104.599,165.200 99.939 C 162.890 98.827,160.064 97.469,158.921 96.922 C 157.778 96.374,156.625 96.061,156.359 96.225 C 156.094 96.389,155.980 96.356,156.106 96.152 C 156.315 95.814,148.343 93.057,144.022 91.973 C 139.465 90.830,133.675 90.005,126.400 89.462 L 120.200 89.000 120.094 76.427 C 120.012 66.647,120.101 63.776,120.494 63.503 C 121.011 63.144,124.187 63.264,133.400 63.991 M115.200 125.107 L 115.200 143.140 120.700 143.336 C 126.962 143.560,132.182 144.368,135.000 145.550 C 150.680 152.128,160.149 163.052,163.298 178.200 C 163.564 179.477,163.813 197.922,163.987 229.200 C 164.279 281.558,164.140 277.983,166.151 285.200 C 168.853 294.894,177.450 305.031,187.107 309.907 C 189.866 311.301,198.924 314.800,199.772 314.800 C 199.909 314.800,199.968 283.705,199.902 245.700 C 199.779 175.212,199.802 176.332,198.390 170.400 C 198.207 169.630,197.757 167.740,197.389 166.200 C 196.619 162.973,195.813 160.475,194.806 158.200 C 194.416 157.320,193.772 155.790,193.375 154.800 C 189.222 144.458,179.614 131.937,170.000 124.339 C 167.563 122.413,166.865 121.947,159.800 117.537 C 157.184 115.904,150.388 112.826,147.200 111.830 C 145.990 111.452,144.640 110.987,144.200 110.797 C 143.760 110.607,142.140 110.164,140.600 109.814 C 139.060 109.463,137.440 109.086,137.000 108.976 C 133.861 108.188,128.365 107.579,122.300 107.347 L 115.200 107.075 115.200 125.107 M284.800 107.627 C 279.967 108.067,273.387 109.392,269.248 110.758 C 267.844 111.221,266.531 111.600,266.329 111.600 C 266.127 111.600,265.216 111.960,264.306 112.400 C 263.395 112.840,262.495 113.200,262.305 113.200 C 261.501 113.200,251.961 118.218,248.926 120.238 C 233.330 130.615,222.565 144.931,216.771 163.000 C 215.393 167.296,215.282 167.751,214.620 171.800 C 214.261 174.000,213.794 176.801,213.583 178.024 C 213.169 180.426,213.024 314.800,213.436 314.800 C 214.279 314.800,221.665 311.996,225.000 310.409 C 234.998 305.654,243.523 296.247,246.397 286.800 C 246.698 285.810,247.076 284.820,247.236 284.600 C 248.693 282.606,248.800 279.102,248.804 233.317 C 248.808 187.521,248.972 181.577,250.378 176.200 C 255.586 156.288,272.637 143.242,293.500 143.207 C 297.897 143.200,298.000 143.179,298.004 142.300 C 298.007 141.805,298.052 133.705,298.104 124.300 L 298.200 107.200 293.200 107.259 C 290.450 107.291,286.670 107.457,284.800 107.627 M292.800 112.687 C 293.235 113.076,293.234 137.277,292.799 137.801 C 292.525 138.131,291.005 138.399,288.683 138.527 C 280.992 138.952,271.595 141.939,266.927 145.444 C 266.226 145.970,265.544 146.400,265.410 146.400 C 264.265 146.400,254.000 155.932,254.000 156.995 C 254.000 157.274,253.745 157.714,253.433 157.973 C 252.939 158.382,250.238 162.651,248.986 165.000 C 247.460 167.862,244.815 176.641,244.805 178.874 C 244.802 179.465,244.623 180.413,244.407 180.980 C 244.159 181.634,244.006 199.953,243.992 230.905 C 243.979 257.796,243.821 279.558,243.641 279.266 C 243.428 278.922,243.219 279.437,243.049 280.715 C 242.384 285.725,238.070 293.650,233.638 298.000 C 232.854 298.770,232.259 299.548,232.316 299.730 C 232.373 299.911,232.265 299.964,232.075 299.846 C 231.885 299.729,231.034 300.346,230.184 301.217 C 229.333 302.087,228.482 302.800,228.292 302.800 C 228.102 302.800,227.374 303.228,226.673 303.752 C 224.755 305.186,219.246 307.703,218.583 307.449 C 217.856 307.170,217.692 184.510,218.411 179.477 C 218.780 176.894,219.296 173.593,219.766 170.800 C 220.609 165.791,224.145 156.433,227.097 151.400 C 227.485 150.740,228.389 149.163,229.106 147.896 C 233.097 140.851,241.229 132.040,248.800 126.560 C 253.452 123.193,262.722 118.000,264.083 118.000 C 264.389 118.000,264.811 117.836,265.020 117.637 C 266.215 116.493,277.949 113.396,282.788 112.946 C 284.348 112.801,285.710 112.546,285.813 112.379 C 286.002 112.072,292.430 112.355,292.800 112.687 M130.800 113.004 C 136.539 113.857,138.598 114.281,141.110 115.123 C 142.369 115.546,144.480 116.227,145.800 116.637 C 148.957 117.619,157.645 121.936,161.026 124.203 C 162.500 125.191,163.793 126.000,163.899 126.000 C 164.416 126.000,174.400 134.886,174.400 135.346 C 174.400 135.441,175.255 136.418,176.300 137.516 C 178.356 139.678,180.879 142.695,181.200 143.376 C 181.310 143.609,182.410 145.330,183.644 147.200 C 184.879 149.070,186.017 151.008,186.173 151.506 C 186.333 152.014,186.647 152.294,186.891 152.144 C 187.129 151.997,187.218 152.046,187.090 152.254 C 186.962 152.462,187.102 153.165,187.402 153.816 C 187.703 154.467,188.571 156.350,189.332 158.000 C 190.093 159.650,190.847 161.624,191.008 162.387 C 191.170 163.150,191.447 164.050,191.624 164.387 C 192.157 165.403,193.262 169.995,194.275 175.400 C 195.305 180.900,195.584 307.078,194.566 307.468 C 190.909 308.872,176.850 296.634,173.122 288.801 C 172.441 287.370,171.732 285.891,171.547 285.514 C 171.362 285.136,171.038 284.146,170.828 283.314 C 170.617 282.481,170.221 281.080,169.946 280.200 C 169.565 278.975,169.393 266.962,169.217 229.000 C 168.982 178.601,168.947 177.451,167.553 174.705 C 167.359 174.323,167.200 173.653,167.200 173.216 C 167.200 172.181,165.249 167.300,163.516 164.000 C 162.290 161.666,161.714 160.729,159.334 157.200 C 158.481 155.935,151.913 149.200,151.533 149.200 C 151.377 149.200,150.653 148.653,149.925 147.985 C 148.752 146.909,144.401 144.273,141.600 142.941 C 135.711 140.140,130.563 138.806,124.200 138.434 L 120.200 138.200 120.094 125.804 C 120.036 118.986,120.075 113.181,120.182 112.904 C 120.444 112.220,125.875 112.271,130.800 113.004 M115.314 220.300 C 115.426 269.831,115.571 284.650,115.960 286.200 C 116.678 289.060,117.062 290.696,117.601 293.200 C 123.599 321.058,145.240 346.344,172.167 356.955 C 176.484 358.656,182.978 360.801,184.596 361.060 C 185.038 361.131,186.210 361.373,187.200 361.599 C 198.628 364.206,212.549 364.333,224.200 361.936 C 240.215 358.641,251.596 353.274,265.000 342.694 C 271.812 337.317,280.900 326.646,285.519 318.600 C 289.149 312.277,294.800 298.589,294.800 296.120 C 294.800 295.702,294.951 295.189,295.135 294.980 C 295.320 294.771,295.787 292.800,296.174 290.600 C 296.560 288.400,297.074 285.880,297.315 285.000 C 297.621 283.882,297.795 264.258,297.894 219.900 L 298.034 156.400 293.210 156.400 C 280.253 156.400,269.889 162.999,264.565 174.639 C 262.217 179.773,262.268 178.637,261.991 231.600 C 261.820 264.399,261.595 280.850,261.299 282.200 C 257.802 298.175,248.738 311.539,236.200 319.207 C 233.079 321.116,227.292 324.000,226.583 324.000 C 226.330 324.000,225.524 324.299,224.792 324.664 C 223.535 325.291,221.177 325.926,216.600 326.870 C 208.960 328.445,190.338 326.828,187.820 324.371 C 187.611 324.167,187.114 324.000,186.716 324.000 C 185.411 324.000,176.983 319.375,173.556 316.778 C 165.309 310.529,158.266 301.470,155.221 293.200 C 154.938 292.430,154.436 291.187,154.105 290.438 C 153.545 289.169,152.894 286.618,151.903 281.800 C 151.643 280.536,151.395 261.697,151.229 230.600 C 151.030 193.433,150.847 181.107,150.480 180.200 C 150.213 179.540,149.632 177.835,149.189 176.410 C 145.489 164.503,133.666 156.400,119.992 156.400 L 115.170 156.400 115.314 220.300 M124.954 161.632 C 129.097 162.718,129.954 163.022,132.306 164.242 C 134.868 165.571,137.641 167.569,138.910 169.000 C 141.703 172.149,144.179 176.539,145.340 180.400 C 145.619 181.328,145.838 198.313,145.988 230.800 C 146.164 268.621,146.333 280.302,146.729 282.000 C 147.011 283.210,147.436 285.100,147.672 286.200 C 148.121 288.290,148.999 291.234,149.581 292.600 C 149.768 293.040,150.321 294.525,150.810 295.900 C 151.298 297.275,151.886 298.400,152.115 298.400 C 152.345 298.400,152.421 298.513,152.283 298.651 C 151.539 299.394,158.223 309.328,162.744 314.200 C 168.157 320.032,176.840 325.791,184.400 328.564 C 186.050 329.169,187.760 329.814,188.200 329.997 C 188.640 330.181,190.350 330.633,192.000 331.003 C 193.650 331.372,195.720 331.883,196.600 332.137 C 198.874 332.795,214.398 332.739,217.000 332.064 C 218.100 331.778,220.080 331.274,221.400 330.943 C 242.307 325.699,259.498 309.070,264.762 289.000 C 267.025 280.374,266.891 282.989,267.051 244.200 C 267.303 182.683,267.328 181.355,268.281 178.781 C 269.170 176.377,270.597 173.442,271.337 172.495 C 273.062 170.287,277.227 166.211,278.473 165.511 C 279.295 165.049,279.857 164.492,279.722 164.274 C 279.586 164.054,279.678 164.001,279.926 164.155 C 280.174 164.308,280.956 164.133,281.665 163.766 C 285.339 161.867,291.705 160.665,292.720 161.680 C 293.280 162.240,293.362 270.043,292.809 278.000 C 292.478 282.760,291.524 289.557,290.844 292.000 C 290.629 292.770,290.335 293.850,290.189 294.400 C 287.691 303.842,280.240 319.401,276.398 323.200 C 276.286 323.310,275.397 324.474,274.420 325.786 C 267.973 334.449,256.133 344.093,245.200 349.586 C 243.438 350.471,242.946 350.697,239.130 352.372 C 237.129 353.250,230.725 355.514,229.400 355.812 C 228.189 356.084,223.433 357.041,219.400 357.825 C 212.693 359.129,197.294 358.797,190.200 357.196 C 189.320 356.997,187.250 356.532,185.600 356.161 C 183.950 355.791,182.240 355.342,181.800 355.164 C 181.360 354.986,180.100 354.554,179.000 354.203 C 177.900 353.853,176.234 353.213,175.299 352.781 C 174.363 352.348,173.283 351.934,172.899 351.860 C 172.012 351.690,167.864 349.676,165.907 348.467 C 165.086 347.959,164.231 347.657,164.007 347.795 C 163.783 347.934,163.600 347.767,163.600 347.424 C 163.600 347.081,163.398 346.800,163.150 346.800 C 162.480 346.800,155.007 341.774,151.800 339.166 C 145.481 334.028,136.178 323.176,132.230 316.335 C 130.613 313.535,126.961 306.099,126.072 303.800 C 125.562 302.480,125.000 301.124,124.823 300.787 C 124.646 300.450,124.378 299.550,124.228 298.787 C 124.077 298.024,123.804 297.040,123.621 296.600 C 122.886 294.834,122.245 292.004,120.903 284.600 C 120.020 279.732,119.623 162.086,120.487 161.537 C 121.202 161.084,123.010 161.122,124.954 161.632 " stroke="none" fill="#a7aaa9" fill-rule="evenodd"></path><path id="path3" d="M114.800 27.077 L 114.800 45.474 123.100 45.742 C 137.401 46.205,146.452 47.547,159.748 51.177 C 163.270 52.138,164.436 52.041,161.122 51.062 C 156.065 49.568,149.081 47.994,142.400 46.842 C 137.372 45.976,127.424 45.200,121.344 45.200 L 115.200 45.200 115.200 27.283 L 115.200 9.365 124.300 9.481 C 129.305 9.544,134.660 9.770,136.200 9.982 C 139.959 10.500,146.249 10.949,146.000 10.681 C 145.490 10.134,133.256 9.129,124.500 8.916 L 114.800 8.680 114.800 27.077 M282.000 9.057 C 262.308 10.341,238.834 15.714,224.639 22.185 C 223.958 22.496,222.232 23.232,220.805 23.820 C 219.378 24.408,215.598 26.197,212.405 27.795 L 206.600 30.701 199.546 27.218 C 184.878 19.978,171.954 15.593,155.200 12.170 C 149.403 10.986,143.183 10.194,147.600 11.202 C 148.370 11.378,150.260 11.735,151.800 11.996 C 153.340 12.257,155.725 12.725,157.100 13.035 C 158.475 13.346,160.815 13.873,162.300 14.207 C 170.643 16.083,182.989 20.218,192.400 24.287 C 195.580 25.662,203.875 29.771,204.862 30.459 C 206.314 31.472,206.804 31.407,209.479 29.841 C 210.755 29.094,213.150 27.855,214.800 27.088 C 216.450 26.320,219.007 25.132,220.483 24.446 C 221.959 23.761,223.320 23.200,223.508 23.200 C 223.696 23.200,224.559 22.860,225.425 22.445 C 230.161 20.174,243.615 15.833,251.000 14.192 C 252.540 13.850,254.430 13.401,255.200 13.194 C 258.850 12.213,267.248 10.984,277.000 10.004 C 279.200 9.783,284.821 9.517,289.492 9.414 L 297.983 9.226 298.092 26.513 C 298.151 36.021,298.141 44.089,298.068 44.443 C 297.954 45.001,296.767 45.119,289.068 45.333 C 258.908 46.175,231.557 55.651,206.991 73.770 C 206.650 74.021,205.869 73.693,204.545 72.743 C 199.177 68.887,194.581 65.904,189.800 63.173 C 187.233 61.707,179.228 57.784,176.400 56.606 C 174.970 56.011,173.260 55.282,172.600 54.987 C 170.373 53.992,163.953 51.914,163.746 52.121 C 163.632 52.234,163.958 52.445,164.470 52.589 C 164.981 52.733,165.760 53.000,166.200 53.184 C 166.640 53.367,168.790 54.180,170.977 54.990 C 181.535 58.899,191.385 64.156,202.441 71.781 C 206.267 74.420,206.523 74.533,207.420 73.981 C 207.940 73.662,210.939 71.673,214.083 69.563 C 229.660 59.107,245.146 52.626,264.600 48.422 C 270.897 47.061,280.511 46.049,290.065 45.742 C 298.044 45.485,298.335 45.446,298.465 44.638 C 298.539 44.177,298.551 35.925,298.492 26.300 L 298.383 8.800 291.092 8.870 C 287.081 8.908,282.990 8.993,282.000 9.057 M114.966 57.967 C 114.875 58.058,114.800 66.383,114.800 76.467 L 114.800 94.800 120.700 94.808 C 123.945 94.812,128.837 95.081,131.570 95.404 C 136.064 95.937,138.839 95.961,135.541 95.440 C 129.530 94.489,125.801 94.220,115.700 94.010 C 115.308 94.002,115.200 90.157,115.200 76.145 L 115.200 58.290 124.100 58.530 C 133.269 58.777,142.938 59.840,147.809 61.137 C 148.684 61.370,151.290 62.031,153.600 62.606 C 155.910 63.181,158.520 63.897,159.400 64.198 C 165.485 66.276,170.627 68.236,173.200 69.459 C 174.850 70.243,177.010 71.266,178.000 71.731 C 180.280 72.802,186.780 76.460,189.400 78.146 C 190.500 78.853,191.690 79.605,192.045 79.816 C 193.780 80.849,199.367 85.049,202.400 87.600 C 204.270 89.173,206.001 90.546,206.246 90.652 C 206.491 90.758,208.741 89.206,211.246 87.205 C 213.751 85.203,216.700 82.947,217.800 82.192 C 218.900 81.436,220.853 80.094,222.140 79.209 C 223.428 78.324,224.534 77.600,224.599 77.600 C 224.665 77.600,225.862 76.911,227.259 76.069 C 236.410 70.556,249.022 65.263,259.000 62.749 C 259.880 62.527,261.140 62.192,261.800 62.004 C 262.876 61.697,265.171 61.213,271.400 59.982 C 275.442 59.183,281.603 58.687,289.696 58.511 L 297.991 58.330 298.102 75.265 L 298.213 92.200 298.207 75.004 L 298.200 57.809 290.600 57.929 C 261.428 58.391,234.295 68.070,212.241 85.880 C 209.844 87.816,207.572 89.631,207.194 89.914 C 206.596 90.360,206.128 90.112,203.626 88.022 C 180.282 68.518,152.524 58.287,121.866 57.888 C 118.162 57.839,115.057 57.875,114.966 57.967 M298.000 93.418 C 298.000 94.349,297.889 94.416,296.700 94.198 C 295.985 94.066,292.250 94.161,288.400 94.408 C 278.951 95.014,277.066 95.211,276.620 95.637 C 276.124 96.111,276.151 96.110,281.815 95.403 C 284.447 95.075,289.255 94.805,292.500 94.803 L 298.400 94.800 298.400 93.600 C 298.400 92.940,298.310 92.400,298.200 92.400 C 298.090 92.400,298.000 92.858,298.000 93.418 M137.800 96.277 C 156.491 100.592,166.879 105.576,180.200 116.617 C 189.273 124.138,196.050 132.715,203.200 145.730 C 204.850 148.733,206.380 151.188,206.600 151.186 C 206.820 151.183,208.245 148.891,209.766 146.091 C 224.518 118.945,245.452 102.771,273.800 96.616 C 275.418 96.265,275.817 96.080,275.026 96.048 C 272.457 95.943,261.600 99.191,255.600 101.859 C 242.879 107.515,228.395 118.421,221.149 127.800 C 215.936 134.548,211.390 141.643,208.389 147.717 C 206.697 151.140,206.640 151.115,203.765 145.733 C 193.403 126.333,180.034 113.040,161.548 103.759 C 158.745 102.352,156.266 101.200,156.039 101.200 C 155.813 101.200,154.946 100.905,154.114 100.545 C 149.243 98.435,140.431 95.953,138.142 96.046 C 137.323 96.080,137.226 96.145,137.800 96.277 M114.800 125.200 L 114.800 143.600 118.500 143.608 C 138.986 143.651,155.377 154.891,161.360 173.000 C 163.368 179.074,163.320 177.866,163.594 229.600 C 163.873 282.038,163.782 279.737,165.817 285.816 C 169.661 297.301,179.630 307.958,190.342 312.033 C 195.904 314.149,199.971 315.496,200.176 315.290 C 200.494 314.972,200.385 180.218,200.065 177.800 C 199.919 176.700,199.850 207.075,199.912 245.300 C 199.973 283.525,199.911 314.800,199.773 314.800 C 198.925 314.800,189.867 311.301,187.107 309.907 C 177.450 305.031,168.853 294.894,166.151 285.200 C 164.140 277.983,164.279 281.558,163.987 229.200 C 163.813 197.922,163.564 179.477,163.298 178.200 C 160.149 163.052,150.680 152.128,135.000 145.550 C 132.182 144.368,126.962 143.560,120.700 143.336 L 115.200 143.140 115.200 125.108 L 115.200 107.077 122.700 107.291 C 126.943 107.412,129.245 107.369,128.000 107.192 C 126.790 107.020,123.325 106.861,120.300 106.840 L 114.800 106.800 114.800 125.200 M284.800 107.192 C 283.810 107.347,286.420 107.385,290.600 107.277 L 298.200 107.080 298.104 124.240 C 298.052 133.678,298.007 141.805,298.004 142.300 C 298.000 143.179,297.897 143.200,293.500 143.207 C 283.333 143.224,274.280 146.145,266.600 151.888 C 256.101 159.738,250.307 170.573,249.207 184.411 C 248.653 191.386,248.438 281.254,248.979 279.693 C 249.205 279.042,249.456 258.688,249.598 229.400 C 249.730 202.340,249.956 179.840,250.100 179.400 C 250.244 178.960,250.638 177.430,250.977 176.000 C 255.469 157.001,271.513 144.691,293.134 143.656 L 298.467 143.400 298.445 125.200 L 298.422 107.000 292.511 106.955 C 289.260 106.930,285.790 107.037,284.800 107.192 M132.200 108.002 C 136.590 108.826,143.204 110.367,144.200 110.797 C 144.640 110.987,145.990 111.452,147.200 111.830 C 150.388 112.826,157.184 115.904,159.800 117.537 C 166.865 121.947,167.563 122.413,170.000 124.339 C 179.613 131.935,189.163 144.379,193.380 154.800 C 194.761 158.213,195.269 159.264,195.449 159.084 C 196.608 157.925,187.598 142.162,181.882 135.349 C 169.538 120.637,149.008 109.128,132.800 107.834 C 130.282 107.633,130.263 107.639,132.200 108.002 M279.200 107.873 C 247.722 113.030,221.738 137.579,214.595 168.912 C 212.799 176.790,212.815 176.090,212.807 247.545 L 212.800 315.291 213.900 315.097 C 225.542 313.051,238.462 303.472,244.543 292.377 C 246.032 289.661,248.425 282.998,248.364 281.741 C 248.344 281.333,248.158 281.630,247.950 282.400 C 247.742 283.170,247.407 284.160,247.206 284.600 C 247.005 285.040,246.576 286.218,246.253 287.218 C 243.226 296.584,234.849 305.725,225.000 310.409 C 221.665 311.996,214.279 314.800,213.436 314.800 C 213.024 314.800,213.169 180.426,213.583 178.024 C 213.794 176.801,214.261 174.000,214.620 171.800 C 215.282 167.751,215.393 167.296,216.771 163.000 C 222.565 144.931,233.330 130.615,248.926 120.238 C 252.322 117.978,261.538 113.200,262.500 113.200 C 262.797 113.200,263.211 113.049,263.420 112.864 C 263.896 112.444,265.287 111.948,269.600 110.661 C 272.644 109.753,274.776 109.255,280.800 108.047 C 282.659 107.674,281.309 107.527,279.200 107.873 M115.067 155.867 C 114.716 156.217,114.778 279.659,115.130 282.000 C 115.278 282.990,115.349 255.135,115.287 220.100 L 115.174 156.400 119.994 156.400 C 133.666 156.400,145.490 164.504,149.189 176.410 C 149.632 177.835,150.213 179.540,150.480 180.200 C 150.847 181.107,151.030 193.427,151.226 230.600 C 151.470 276.856,151.645 283.779,152.597 284.730 C 152.887 285.020,152.490 281.410,151.967 279.000 C 151.776 278.120,151.614 256.520,151.607 231.000 C 151.599 202.222,151.443 183.669,151.196 182.150 C 149.252 170.173,141.317 161.014,129.426 157.022 C 126.882 156.168,115.668 155.266,115.067 155.867 M290.600 155.848 C 275.845 157.604,265.637 166.311,262.302 179.982 C 261.997 181.231,261.777 197.128,261.600 230.800 C 261.406 267.583,261.219 280.299,260.848 281.800 C 260.576 282.900,260.075 284.970,259.735 286.400 C 256.194 301.258,244.842 314.832,229.977 321.980 C 227.680 323.085,226.080 323.991,226.421 323.994 C 227.263 324.002,232.763 321.309,236.200 319.207 C 244.304 314.251,252.554 304.940,256.587 296.200 C 259.256 290.417,259.955 288.341,261.299 282.200 C 261.595 280.850,261.820 264.399,261.991 231.600 C 262.268 178.637,262.217 179.773,264.565 174.639 C 269.889 162.999,280.253 156.400,293.210 156.400 L 298.034 156.400 297.894 219.900 C 297.795 264.258,297.621 283.882,297.315 285.000 C 297.074 285.880,296.560 288.400,296.174 290.600 C 295.787 292.800,295.320 294.771,295.135 294.980 C 294.951 295.189,294.800 295.702,294.800 296.120 C 294.800 298.589,289.149 312.277,285.519 318.600 C 280.900 326.646,271.812 337.317,265.000 342.694 C 251.596 353.274,240.215 358.641,224.200 361.936 C 212.549 364.333,198.628 364.206,187.200 361.599 C 186.210 361.373,185.038 361.131,184.596 361.060 C 182.978 360.801,176.484 358.656,172.167 356.955 C 150.357 348.361,132.062 330.443,122.588 308.400 C 120.292 303.055,118.637 298.014,117.601 293.200 C 117.340 291.990,116.975 290.370,116.789 289.600 C 116.602 288.830,116.269 287.390,116.048 286.400 L 115.645 284.600 115.862 286.800 C 116.756 295.872,121.752 309.594,127.785 319.551 C 132.250 326.919,135.804 331.430,141.876 337.436 C 184.167 379.270,253.474 370.897,285.130 320.129 C 287.249 316.730,291.098 309.012,292.196 305.958 C 295.183 297.657,295.764 295.475,297.670 285.400 C 298.096 283.150,298.200 270.145,298.200 219.200 L 298.200 155.800 295.000 155.753 C 293.240 155.727,291.260 155.770,290.600 155.848 M195.600 159.992 C 195.600 160.207,195.854 161.062,196.165 161.892 C 196.475 162.721,197.025 164.660,197.387 166.200 C 197.749 167.740,198.215 169.553,198.423 170.228 C 198.630 170.904,198.818 171.984,198.840 172.628 C 198.862 173.273,199.039 174.250,199.234 174.800 C 199.481 175.499,199.527 175.096,199.386 173.464 C 199.055 169.627,195.600 157.334,195.600 159.992 M153.073 286.800 C 153.206 287.790,153.627 289.320,154.010 290.200 C 154.392 291.080,154.937 292.430,155.221 293.200 C 158.276 301.494,165.205 310.413,173.478 316.702 C 177.122 319.471,185.857 324.248,186.739 323.953 C 186.990 323.869,185.802 323.176,184.098 322.414 C 170.289 316.238,159.165 304.021,154.583 290.000 C 153.012 285.191,152.797 284.736,153.073 286.800 M187.800 324.312 C 190.118 326.802,208.858 328.466,216.600 326.870 C 221.947 325.767,225.924 324.591,225.554 324.220 C 225.467 324.134,223.944 324.484,222.168 324.998 C 211.216 328.170,198.521 327.860,188.200 324.168 C 187.639 323.968,187.520 324.011,187.800 324.312 " stroke="none" fill="#bcbbbb" fill-rule="evenodd"></path><path id="path4" d="M120.300 14.630 C 120.135 14.797,120.000 20.570,120.000 27.459 L 120.000 39.985 120.900 40.168 C 121.395 40.269,124.860 40.447,128.600 40.564 C 134.977 40.763,136.720 40.932,143.800 42.040 C 147.215 42.575,152.106 43.509,154.000 43.988 C 154.770 44.183,156.660 44.648,158.200 45.021 C 159.740 45.394,163.700 46.587,167.000 47.673 C 172.557 49.500,174.808 50.373,177.732 51.834 C 178.355 52.145,179.060 52.400,179.299 52.400 C 179.960 52.400,190.319 57.565,192.681 59.072 C 193.825 59.802,194.950 60.400,195.181 60.400 C 195.411 60.400,195.600 60.541,195.600 60.712 C 195.600 60.884,196.095 61.238,196.700 61.499 C 198.251 62.167,199.759 63.102,203.163 65.507 C 206.810 68.084,205.839 68.235,212.102 64.117 C 215.016 62.202,218.750 59.926,220.400 59.059 C 222.050 58.193,224.071 57.060,224.892 56.542 C 225.713 56.024,226.483 55.600,226.603 55.600 C 226.724 55.600,228.123 54.989,229.711 54.242 C 239.025 49.866,248.335 46.587,258.800 43.998 C 260.485 43.581,265.622 42.610,269.200 42.031 C 275.457 41.020,278.630 40.720,285.299 40.509 C 290.176 40.355,292.525 40.132,292.804 39.795 C 293.067 39.479,293.174 34.903,293.106 26.952 L 293.000 14.600 287.800 14.468 C 282.499 14.334,279.078 14.616,268.800 16.040 C 258.701 17.438,251.211 18.880,250.000 19.660 C 249.323 20.096,251.775 19.796,253.800 19.196 C 255.318 18.746,262.165 17.477,268.800 16.415 C 272.689 15.793,280.288 15.156,286.700 14.914 L 292.400 14.699 292.400 27.094 L 292.400 39.489 290.300 39.741 C 289.145 39.880,286.670 39.995,284.800 39.997 C 281.312 40.001,272.320 40.880,268.400 41.601 C 252.234 44.571,241.666 47.945,228.200 54.435 C 225.560 55.708,222.320 57.376,221.000 58.143 C 219.680 58.910,217.880 59.929,217.000 60.409 C 216.120 60.889,214.545 61.893,213.499 62.641 C 212.454 63.388,211.507 64.000,211.395 64.000 C 211.283 64.000,210.253 64.660,209.105 65.467 C 206.475 67.315,206.842 67.369,202.597 64.514 C 195.985 60.066,186.246 54.736,179.800 52.038 C 178.040 51.301,175.822 50.354,174.871 49.933 C 172.051 48.686,162.531 45.597,157.800 44.394 C 153.768 43.368,151.911 42.959,146.800 41.967 C 142.345 41.102,134.828 40.320,128.303 40.041 C 124.399 39.875,121.126 39.660,121.030 39.563 C 120.886 39.420,120.666 19.040,120.770 15.642 L 120.800 14.684 126.700 14.930 C 132.832 15.186,142.990 16.119,146.800 16.778 C 148.010 16.987,150.170 17.348,151.600 17.580 C 153.030 17.812,154.920 18.175,155.800 18.387 C 156.680 18.599,158.750 19.070,160.400 19.435 C 168.372 21.194,179.015 24.625,185.896 27.654 C 186.828 28.064,187.699 28.400,187.831 28.400 C 187.963 28.400,189.270 28.962,190.735 29.648 C 192.201 30.334,194.030 31.152,194.800 31.465 L 196.200 32.034 195.200 31.226 C 194.650 30.782,194.078 30.414,193.928 30.409 C 193.778 30.404,192.489 29.860,191.063 29.200 C 189.637 28.540,188.363 28.000,188.231 28.000 C 188.099 28.000,187.228 27.665,186.296 27.255 C 184.797 26.596,182.719 25.759,180.200 24.799 C 175.544 23.026,169.837 21.200,168.949 21.200 C 168.641 21.200,168.077 21.027,167.695 20.816 C 166.991 20.427,161.532 18.976,158.600 18.399 C 150.713 16.847,143.594 15.704,138.400 15.154 C 133.059 14.589,120.695 14.231,120.300 14.630 M247.000 20.291 C 246.340 20.385,245.629 20.628,245.420 20.831 C 245.211 21.034,244.742 21.200,244.379 21.200 C 243.770 21.200,234.843 24.001,233.000 24.770 C 232.560 24.954,231.390 25.420,230.400 25.806 C 228.064 26.718,226.178 27.526,224.225 28.453 C 223.359 28.864,222.470 29.200,222.250 29.200 C 221.686 29.200,211.028 34.536,210.867 34.900 C 210.793 35.065,210.565 35.200,210.359 35.200 C 210.153 35.200,209.266 35.654,208.387 36.208 C 206.877 37.162,206.727 37.183,205.595 36.598 C 204.938 36.258,204.400 36.142,204.400 36.341 C 204.400 37.146,206.842 37.767,207.746 37.192 C 209.812 35.877,222.055 29.600,222.551 29.600 C 222.693 29.600,223.572 29.253,224.504 28.829 C 225.437 28.404,227.640 27.489,229.400 26.794 C 231.160 26.099,232.960 25.374,233.400 25.183 C 234.393 24.752,239.398 23.130,242.600 22.201 C 246.346 21.115,249.460 20.054,248.800 20.088 C 248.470 20.106,247.660 20.197,247.000 20.291 M196.400 32.143 C 196.400 32.322,203.456 36.000,203.798 36.000 C 204.560 36.000,203.231 35.118,200.265 33.655 C 197.071 32.080,196.400 31.818,196.400 32.143 M120.494 63.533 C 120.100 63.783,120.012 66.635,120.094 76.427 L 120.200 89.000 126.400 89.453 C 134.195 90.022,136.171 90.304,143.400 91.880 C 146.865 92.635,157.703 96.199,159.600 97.207 C 160.370 97.616,162.890 98.853,165.200 99.956 C 174.805 104.542,189.518 116.108,195.276 123.600 C 199.819 129.511,204.000 135.453,204.000 135.998 C 204.000 136.219,204.135 136.402,204.300 136.405 C 204.465 136.407,204.944 137.127,205.364 138.005 C 206.077 139.492,207.200 140.185,207.200 139.138 C 207.200 138.884,207.650 138.086,208.200 137.364 C 208.750 136.643,209.200 135.979,209.200 135.888 C 209.200 135.681,213.238 129.638,214.694 127.666 C 217.955 123.249,224.539 116.342,229.000 112.659 C 234.212 108.355,234.905 107.811,237.000 106.373 C 238.100 105.618,239.090 104.910,239.200 104.800 C 239.310 104.690,239.940 104.303,240.600 103.940 C 246.228 100.847,248.559 99.368,247.000 99.879 C 246.280 100.115,244.811 100.915,242.585 102.282 C 242.153 102.547,240.877 103.301,239.749 103.958 C 235.948 106.170,227.847 112.644,223.429 117.001 C 217.641 122.707,213.781 127.704,207.758 137.285 L 206.573 139.169 204.722 136.085 C 203.114 133.406,200.292 129.390,196.510 124.400 C 185.507 109.882,163.190 95.876,144.200 91.570 C 135.394 89.574,132.909 89.198,126.666 88.920 C 119.893 88.619,120.546 90.122,120.800 75.426 L 121.000 63.853 125.600 63.886 C 129.379 63.914,129.808 63.863,128.000 63.600 C 125.058 63.171,121.120 63.136,120.494 63.533 M284.600 63.626 C 283.511 63.838,284.469 63.916,287.600 63.869 L 292.200 63.800 292.306 76.237 L 292.411 88.675 286.458 88.932 C 283.183 89.074,279.536 89.384,278.352 89.621 C 277.169 89.858,275.210 90.243,274.000 90.477 C 266.667 91.891,258.797 94.241,254.200 96.387 C 252.880 97.004,250.927 97.901,249.861 98.382 C 248.795 98.862,248.018 99.352,248.136 99.469 C 248.254 99.587,249.306 99.228,250.475 98.672 C 253.996 96.995,256.942 95.727,258.000 95.430 C 258.550 95.276,259.360 94.994,259.800 94.804 C 262.044 93.834,269.176 91.833,272.800 91.158 C 276.547 90.460,287.274 89.237,289.820 89.218 C 293.379 89.192,293.200 89.879,293.200 76.200 C 293.200 67.369,293.072 64.032,292.720 63.680 C 292.186 63.146,287.230 63.113,284.600 63.626 M135.000 64.583 C 145.298 65.967,150.387 67.122,160.000 70.259 C 162.310 71.012,164.650 71.821,165.200 72.057 C 174.590 76.072,179.760 78.695,186.086 82.654 C 188.742 84.316,191.114 85.839,191.357 86.040 C 191.834 86.432,199.347 92.379,201.370 93.965 C 202.046 94.495,203.536 95.831,204.681 96.932 C 206.762 98.935,206.762 98.935,207.481 98.102 C 208.525 96.891,215.498 90.837,217.735 89.200 C 218.787 88.430,220.492 87.167,221.524 86.394 C 228.419 81.228,239.253 75.476,249.000 71.807 C 251.200 70.978,253.360 70.161,253.800 69.990 C 254.535 69.705,256.921 69.024,261.000 67.935 C 261.880 67.700,263.050 67.361,263.600 67.181 C 264.150 67.002,265.860 66.639,267.400 66.374 C 268.940 66.109,271.010 65.729,272.000 65.531 C 272.990 65.332,275.870 64.913,278.400 64.601 L 283.000 64.033 278.649 64.216 C 276.255 64.316,273.645 64.564,272.849 64.766 C 272.052 64.968,269.690 65.438,267.600 65.810 C 265.510 66.182,262.810 66.813,261.600 67.211 C 260.390 67.609,258.770 68.051,258.000 68.193 C 257.230 68.334,256.150 68.604,255.600 68.792 C 252.534 69.839,248.438 71.350,247.340 71.839 C 246.646 72.147,245.948 72.400,245.788 72.400 C 245.628 72.400,243.855 73.194,241.848 74.165 C 239.842 75.136,237.390 76.304,236.400 76.761 C 235.410 77.218,233.700 78.128,232.600 78.783 C 231.500 79.438,230.060 80.276,229.400 80.644 C 225.676 82.725,218.486 87.752,217.880 88.700 C 217.704 88.975,217.380 89.200,217.159 89.200 C 216.939 89.200,214.743 90.940,212.279 93.068 C 209.816 95.195,207.507 97.182,207.150 97.484 C 206.579 97.967,206.157 97.727,203.690 95.517 C 199.435 91.705,196.776 89.444,196.026 89.000 C 195.107 88.456,192.376 86.346,191.573 85.560 C 191.214 85.208,190.353 84.669,189.660 84.363 C 188.967 84.056,188.400 83.669,188.400 83.502 C 188.400 83.336,188.233 83.200,188.028 83.200 C 187.824 83.200,186.573 82.480,185.248 81.600 C 183.923 80.720,182.709 80.000,182.551 80.000 C 182.393 80.000,181.979 79.745,181.631 79.433 C 180.692 78.588,168.149 72.400,167.377 72.400 C 167.236 72.400,166.464 72.112,165.660 71.759 C 162.638 70.433,161.725 70.118,156.000 68.423 C 150.090 66.673,149.418 66.503,145.600 65.801 C 143.730 65.457,141.450 65.005,140.533 64.798 C 139.616 64.591,137.096 64.336,134.933 64.233 L 131.000 64.046 135.000 64.583 M120.182 112.904 C 120.075 113.181,120.036 118.986,120.094 125.804 L 120.200 138.200 124.200 138.434 C 130.563 138.806,135.711 140.140,141.600 142.941 C 144.401 144.273,148.752 146.909,149.925 147.985 C 150.653 148.653,151.377 149.200,151.533 149.200 C 151.913 149.200,158.481 155.935,159.334 157.200 C 161.714 160.729,162.290 161.666,163.516 164.000 C 165.249 167.300,167.200 172.181,167.200 173.216 C 167.200 173.653,167.359 174.323,167.553 174.705 C 168.947 177.451,168.982 178.601,169.217 229.000 C 169.393 266.962,169.565 278.975,169.946 280.200 C 170.221 281.080,170.617 282.481,170.828 283.314 C 171.038 284.146,171.362 285.136,171.547 285.514 C 171.732 285.891,172.441 287.370,173.122 288.801 C 176.850 296.634,190.909 308.872,194.566 307.468 C 195.584 307.078,195.305 180.900,194.275 175.400 C 193.262 169.995,192.157 165.403,191.624 164.387 C 191.447 164.050,191.166 163.150,190.999 162.387 C 190.605 160.578,188.852 156.614,188.571 156.895 C 188.451 157.015,188.646 157.808,189.003 158.657 C 191.315 164.145,192.854 169.892,193.807 176.600 C 194.396 180.749,194.729 306.338,194.152 306.914 C 193.479 307.588,184.464 302.097,181.250 299.056 C 177.119 295.148,172.368 287.442,171.181 282.725 C 170.943 281.776,170.547 280.280,170.303 279.400 C 169.995 278.290,169.784 262.612,169.614 228.200 C 169.422 189.207,169.258 178.258,168.851 177.000 C 168.566 176.120,168.149 174.680,167.925 173.800 C 164.032 158.518,150.748 144.456,136.200 140.217 C 134.880 139.833,133.350 139.370,132.800 139.189 C 131.441 138.742,127.234 138.060,123.605 137.699 L 120.611 137.400 120.653 134.400 C 120.676 132.750,120.718 127.215,120.747 122.100 L 120.800 112.800 123.100 112.799 C 148.575 112.794,175.201 130.048,187.031 154.228 C 187.623 155.437,188.190 156.343,188.292 156.241 C 188.615 155.918,185.591 150.092,183.355 146.733 C 182.170 144.952,181.200 143.414,181.200 143.315 C 181.200 143.046,178.455 139.803,176.300 137.527 C 175.255 136.422,174.400 135.441,174.400 135.346 C 174.400 134.886,164.416 126.000,163.899 126.000 C 163.793 126.000,162.500 125.191,161.026 124.203 C 157.645 121.936,148.957 117.619,145.800 116.637 C 144.480 116.227,142.369 115.546,141.110 115.123 C 135.007 113.076,120.698 111.559,120.182 112.904 M282.200 112.988 C 276.228 113.823,266.159 116.547,265.020 117.637 C 264.811 117.836,264.389 118.000,264.083 118.000 C 262.722 118.000,253.452 123.193,248.800 126.560 C 241.229 132.040,233.097 140.851,229.106 147.896 C 228.389 149.163,227.485 150.740,227.097 151.400 C 222.658 158.969,220.213 166.873,218.411 179.477 C 217.692 184.510,217.856 307.170,218.583 307.449 C 219.246 307.703,224.755 305.186,226.673 303.752 C 227.374 303.228,228.094 302.794,228.273 302.786 C 229.752 302.725,237.678 293.720,239.624 289.890 C 244.021 281.241,243.719 285.388,244.011 229.600 C 244.267 180.712,244.308 179.410,245.744 173.986 C 246.366 171.637,248.288 166.309,248.986 165.000 C 250.238 162.651,252.939 158.382,253.433 157.973 C 253.745 157.714,254.000 157.274,254.000 156.995 C 254.000 155.932,264.265 146.400,265.410 146.400 C 265.544 146.400,266.226 145.970,266.927 145.444 C 271.566 141.961,280.948 138.967,288.600 138.527 C 290.580 138.413,292.425 138.136,292.700 137.911 C 293.227 137.480,293.452 115.180,292.948 113.300 C 292.659 112.222,288.534 112.103,282.200 112.988 M292.306 125.258 L 292.411 137.516 289.106 137.772 C 285.852 138.025,284.560 138.260,279.800 139.461 C 265.192 143.150,252.919 153.821,247.376 167.654 C 243.663 176.919,243.882 173.383,243.597 228.600 C 243.329 280.530,243.399 278.812,241.309 284.781 C 238.040 294.115,230.620 301.981,221.145 306.156 L 218.890 307.150 218.678 306.075 C 218.277 304.047,218.390 195.922,218.803 186.400 C 219.156 178.236,220.029 170.726,220.893 168.400 C 221.016 168.070,221.420 166.720,221.790 165.400 C 222.654 162.323,223.242 160.697,223.664 160.220 C 223.849 160.011,224.000 159.549,224.000 159.194 C 224.000 157.866,230.520 145.862,231.833 144.773 C 232.145 144.514,232.400 144.134,232.400 143.930 C 232.400 143.257,236.833 137.984,240.148 134.715 C 250.412 124.592,262.357 117.801,274.800 115.015 C 282.499 113.291,285.410 112.873,289.200 112.944 L 292.200 113.000 292.306 125.258 M120.487 161.537 C 119.623 162.086,120.020 279.732,120.903 284.600 C 122.245 292.004,122.886 294.834,123.621 296.600 C 123.804 297.040,124.077 298.024,124.228 298.787 C 124.378 299.550,124.646 300.450,124.823 300.787 C 125.000 301.124,125.562 302.480,126.072 303.800 C 126.961 306.099,130.613 313.535,132.230 316.335 C 136.178 323.176,145.481 334.028,151.800 339.166 C 154.930 341.711,162.474 346.800,163.117 346.800 C 163.346 346.800,163.593 346.935,163.667 347.100 C 163.926 347.684,170.217 350.850,173.579 352.088 C 174.801 352.538,175.980 353.035,176.200 353.192 C 176.420 353.349,177.590 353.782,178.800 354.154 C 180.010 354.526,181.360 354.979,181.800 355.159 C 182.240 355.340,183.950 355.791,185.600 356.161 C 187.250 356.532,189.320 356.997,190.200 357.196 C 197.308 358.801,212.710 359.130,219.400 357.821 C 221.380 357.433,223.900 356.964,225.000 356.777 C 227.176 356.409,228.388 356.070,233.720 354.343 C 237.575 353.093,241.254 351.569,245.200 349.586 C 256.133 344.093,267.973 334.449,274.420 325.786 C 275.397 324.474,276.286 323.310,276.398 323.200 C 280.240 319.401,287.691 303.842,290.189 294.400 C 290.335 293.850,290.629 292.770,290.844 292.000 C 292.957 284.408,293.125 279.032,293.164 217.780 C 293.203 157.761,293.333 161.187,291.020 161.214 C 285.764 161.276,278.486 164.735,274.400 169.115 C 270.637 173.149,269.979 174.187,268.281 178.781 C 267.328 181.355,267.303 182.683,267.051 244.200 C 266.891 282.989,267.025 280.374,264.762 289.000 C 262.958 295.880,258.946 303.690,253.873 310.200 C 246.042 320.248,233.216 328.296,220.400 331.204 C 217.021 331.971,215.858 332.434,218.000 332.160 C 221.839 331.668,228.665 329.437,233.400 327.126 C 245.879 321.034,257.058 309.553,262.149 297.600 C 262.758 296.170,263.409 294.640,263.597 294.200 C 267.410 285.246,267.320 286.679,267.590 231.200 C 267.849 178.101,267.715 181.412,269.792 176.620 C 272.479 170.424,278.646 164.877,284.835 163.090 C 288.165 162.129,291.544 161.518,291.994 161.796 C 292.569 162.152,292.553 278.749,291.978 282.354 C 289.880 295.493,287.266 303.783,282.443 312.600 C 274.756 326.651,264.733 337.247,251.107 345.728 C 248.746 347.198,246.741 348.400,246.652 348.400 C 246.563 348.400,244.589 349.294,242.266 350.387 C 239.943 351.480,236.548 352.848,234.721 353.428 C 232.895 354.007,230.592 354.745,229.604 355.068 C 217.063 359.171,195.305 358.953,181.800 354.591 C 171.287 351.195,158.556 344.527,153.062 339.540 C 152.656 339.172,151.486 338.187,150.462 337.351 C 148.319 335.603,140.767 327.555,138.496 324.600 C 136.609 322.144,131.600 314.626,131.600 314.250 C 131.600 314.099,130.917 312.766,130.082 311.288 C 129.248 309.809,128.141 307.520,127.624 306.200 C 127.106 304.880,126.460 303.260,126.188 302.600 C 124.844 299.339,124.760 299.065,123.353 293.400 C 120.693 282.694,120.800 285.753,120.800 220.675 L 120.800 161.890 123.700 162.160 C 131.853 162.921,138.295 167.411,142.875 175.526 C 143.718 177.021,144.126 178.118,144.909 181.000 C 145.204 182.085,145.429 198.425,145.607 231.800 C 145.888 284.285,145.752 280.670,147.748 288.600 C 148.841 292.944,151.979 300.454,153.762 302.994 C 154.223 303.651,154.815 304.597,155.077 305.096 C 160.876 316.123,177.598 328.229,191.400 331.393 C 192.940 331.746,194.920 332.217,195.800 332.439 C 197.993 332.991,211.293 333.345,214.000 332.922 C 215.569 332.677,213.618 332.582,207.200 332.589 C 201.544 332.596,197.606 332.428,196.600 332.137 C 195.720 331.883,193.650 331.372,192.000 331.003 C 190.350 330.633,188.640 330.181,188.200 329.997 C 187.760 329.814,186.050 329.169,184.400 328.564 C 169.763 323.196,155.334 309.034,150.609 295.400 C 150.227 294.300,149.763 293.040,149.578 292.600 C 148.993 291.214,148.118 288.275,147.672 286.200 C 147.436 285.100,147.011 283.210,146.729 282.000 C 146.333 280.302,146.164 268.621,145.988 230.800 C 145.838 198.313,145.619 181.328,145.340 180.400 C 144.179 176.539,141.703 172.149,138.910 169.000 C 137.641 167.569,134.868 165.571,132.306 164.242 C 129.954 163.022,129.097 162.718,124.954 161.632 C 123.010 161.122,121.202 161.084,120.487 161.537 " stroke="none" fill="#7c9b8b" fill-rule="evenodd"></path></g></svg>